<svg width="30" height="30" viewBox="0 0 30 30" fill="none" xmlns="http://www.w3.org/2000/svg">
<path d="M8.08818 5.06253L6.25068 6.92502C5.75483 7.41557 5.36118 7.99958 5.09253 8.64327C4.82388 9.28695 4.68555 9.97753 4.68555 10.675C4.68555 11.3725 4.82388 12.0631 5.09253 12.7068C5.36118 13.3505 5.75483 13.9345 6.25068 14.425L15.5882 23.75C16.0787 24.2459 16.6627 24.6395 17.3064 24.9082C17.9501 25.1768 18.6407 25.3152 19.3382 25.3152C20.0357 25.3152 20.7263 25.1768 21.3699 24.9082C22.0136 24.6395 22.5976 24.2459 23.0882 23.75L25.0007 21.9125C25.1312 21.7898 25.2352 21.6416 25.3064 21.4772C25.3775 21.3127 25.4142 21.1354 25.4142 20.9563C25.4142 20.7771 25.3775 20.5998 25.3064 20.4354C25.2352 20.2709 25.1312 20.1228 25.0007 20L22.2007 17.1875C21.9506 16.9417 21.6139 16.804 21.2632 16.804C20.9125 16.804 20.5758 16.9417 20.3257 17.1875L19.3882 18.125C19.1381 18.3708 18.8014 18.5086 18.4507 18.5086C18.1 18.5086 17.7633 18.3708 17.5132 18.125L11.8382 12.5C11.5924 12.2499 11.4546 11.9132 11.4546 11.5625C11.4546 11.2118 11.5924 10.8752 11.8382 10.625L12.7757 9.68753C13.0215 9.4374 13.1592 9.10073 13.1592 8.75003C13.1592 8.39932 13.0215 8.06265 12.7757 7.81253L10.0007 5.06253C9.87795 4.93198 9.72979 4.82795 9.56534 4.75684C9.40088 4.68573 9.2236 4.64905 9.04443 4.64905C8.86526 4.64905 8.68798 4.68573 8.52352 4.75684C8.35906 4.82795 8.21091 4.93198 8.08818 5.06253Z" stroke="#455763" stroke-width="1.5" stroke-linecap="round" stroke-linejoin="round"/>
</svg>
