<svg width="30" height="30" viewBox="0 0 30 30" fill="none" xmlns="http://www.w3.org/2000/svg">
<path d="M23.7754 6.21879C22.0391 4.48328 19.8272 3.30161 17.4193 2.82319C15.0115 2.34478 12.5158 2.59111 10.248 3.53103C7.98012 4.47096 6.0419 6.06226 4.67842 8.10372C3.31494 10.1452 2.58743 12.5451 2.58789 15C2.58789 18.2926 3.89543 21.4504 6.22305 23.7792C8.55066 26.108 11.7078 27.4171 15.0004 27.4188C16.6297 27.4188 18.2433 27.1004 19.7504 26.4813C21.2523 25.8469 22.6187 24.9304 23.7754 23.7813C24.9287 22.6282 25.8435 21.2592 26.4677 19.7525C27.0919 18.2458 27.4131 16.6309 27.4131 15C27.4131 13.3692 27.0919 11.7543 26.4677 10.2476C25.8435 8.74087 24.9287 7.37188 23.7754 6.21879ZM22.9004 22.8938C21.113 24.689 18.7676 25.822 16.2504 26.1063V17.9063H18.6004C18.9319 17.9063 19.2499 17.7746 19.4843 17.5402C19.7187 17.3057 19.8504 16.9878 19.8504 16.6563C19.8504 16.3248 19.7187 16.0068 19.4843 15.7724C19.2499 15.538 18.9319 15.4063 18.6004 15.4063H16.2504V11.9813C16.2504 11.6498 16.3821 11.3318 16.6165 11.0974C16.8509 10.863 17.1689 10.7313 17.5004 10.7313H19.0004C19.3319 10.7313 19.6499 10.5996 19.8843 10.3652C20.1187 10.1307 20.2504 9.81281 20.2504 9.48129C20.2504 9.14977 20.1187 8.83182 19.8843 8.5974C19.6499 8.36298 19.3319 8.23129 19.0004 8.23129H16.8754C16.0466 8.23129 15.2517 8.56053 14.6657 9.14658C14.0796 9.73263 13.7504 10.5275 13.7504 11.3563V15.4063H11.4129C11.0814 15.4063 10.7634 15.538 10.529 15.7724C10.2946 16.0068 10.1629 16.3248 10.1629 16.6563C10.1629 16.9878 10.2946 17.3057 10.529 17.5402C10.7634 17.7746 11.0814 17.9063 11.4129 17.9063H13.7504V26.1063C11.429 25.8414 9.24949 24.854 7.5197 23.2834C5.78991 21.7128 4.59728 19.6384 4.11027 17.3533C3.62325 15.0681 3.86646 12.6878 4.80555 10.5484C5.74465 8.40894 7.33215 6.61864 9.34383 5.43031C11.3555 4.24199 13.6897 3.71571 16.0167 3.92581C18.3436 4.13591 20.5458 5.07178 22.3121 6.60122C24.0784 8.13065 25.3195 10.1764 25.8602 12.4494C26.4009 14.7224 26.2138 17.1079 25.3254 19.2688C24.7584 20.6222 23.935 21.8532 22.9004 22.8938Z" fill="#455763"/>
</svg>
