<svg width="30" height="30" viewBox="0 0 30 30" fill="none" xmlns="http://www.w3.org/2000/svg">
<path d="M18.9 5.3125H20C20.9946 5.3125 21.9484 5.70759 22.6517 6.41085C23.3549 7.11411 23.75 8.06794 23.75 9.0625V22.8125C23.75 23.8071 23.3549 24.7609 22.6517 25.4642C21.9484 26.1674 20.9946 26.5625 20 26.5625H10C9.00544 26.5625 8.05161 26.1674 7.34835 25.4642C6.64509 24.7609 6.25 23.8071 6.25 22.8125V9.0625C6.25 8.06794 6.64509 7.11411 7.34835 6.41085C8.05161 5.70759 9.00544 5.3125 10 5.3125H11.125" stroke="#455763" stroke-width="1.5" stroke-miterlimit="10" stroke-linecap="round"/>
<path d="M18.75 16.25H11.25" stroke="#455763" stroke-width="1.5" stroke-linecap="round" stroke-linejoin="round"/>
<path d="M15.75 20H11.25" stroke="#455763" stroke-width="1.5" stroke-linecap="round" stroke-linejoin="round"/>
<path d="M18.75 12.5H11.25" stroke="#455763" stroke-width="1.5" stroke-linecap="round" stroke-linejoin="round"/>
<path d="M16.875 3.4375H13.125C12.0895 3.4375 11.25 4.27697 11.25 5.3125C11.25 6.34803 12.0895 7.1875 13.125 7.1875H16.875C17.9105 7.1875 18.75 6.34803 18.75 5.3125C18.75 4.27697 17.9105 3.4375 16.875 3.4375Z" stroke="#455763" stroke-width="1.5" stroke-miterlimit="10" stroke-linecap="round"/>
</svg>
