<svg width="30" height="32" viewBox="0 0 30 32" fill="none" xmlns="http://www.w3.org/2000/svg">
<path d="M18.1117 24.7302C17.7696 25.2731 17.3052 25.7185 16.76 26.0266C16.2147 26.3348 15.6055 26.496 14.9867 26.496C14.3678 26.496 13.7586 26.3348 13.2134 26.0266C12.6681 25.7185 12.2037 25.2731 11.8617 24.7302C6.86167 17.0045 7.24917 13.2666 7.24917 13.2666C7.24917 11.1094 8.06305 9.04061 9.51177 7.51524C10.9605 5.98988 12.9254 5.13293 14.9742 5.13293C17.023 5.13293 18.9878 5.98988 20.4366 7.51524C21.8853 9.04061 22.6992 11.1094 22.6992 13.2666C22.6992 13.2666 23.1617 17.0045 18.1117 24.7302Z" stroke="#455763" stroke-width="1.5" stroke-linecap="round" stroke-linejoin="round"/>
<path d="M15 15.8857C16.3807 15.8857 17.5 14.7072 17.5 13.2535C17.5 11.7997 16.3807 10.6212 15 10.6212C13.6193 10.6212 12.5 11.7997 12.5 13.2535C12.5 14.7072 13.6193 15.8857 15 15.8857Z" stroke="#455763" stroke-width="1.5" stroke-linecap="round" stroke-linejoin="round"/>
</svg>
